<?xml version="1.0" standalone="no"?>
<!DOCTYPE svg PUBLIC "-//W3C//DTD SVG 20010904//EN"
 "http://www.w3.org/TR/2001/REC-SVG-20010904/DTD/svg10.dtd">
<svg version="1.0" xmlns="http://www.w3.org/2000/svg"
 width="194.000000pt" height="194.000000pt" viewBox="0 0 194.000000 194.000000"
 preserveAspectRatio="xMidYMid meet">
<metadata>
Created by potrace 1.14, written by Peter Selinger 2001-2017
</metadata>
<g transform="translate(0.000000,194.000000) scale(0.100000,-0.100000)"
fill="#000000" stroke="none">
<path d="M914 1789 c-42 -21 -105 -156 -120 -259 -2 -14 -8 -52 -13 -85 -9
-64 -7 -304 4 -370 31 -189 88 -409 131 -510 20 -47 40 -88 45 -91 17 -10 58
84 89 203 14 55 24 228 23 418 0 336 -38 608 -94 679 -22 28 -32 30 -65 15z"/>
<path d="M365 1110 c-23 -26 -22 -71 6 -163 40 -137 114 -250 261 -398 158
-160 196 -169 158 -39 -18 59 -90 213 -102 218 -5 2 -8 8 -8 13 0 26 -174 281
-228 334 -55 53 -67 57 -87 35z"/>
<path d="M1485 1067 c-84 -88 -230 -318 -300 -470 -29 -65 -53 -162 -42 -173
4 -4 19 -1 35 7 33 17 183 165 238 234 21 28 42 52 45 55 3 3 25 40 48 82 37
67 51 102 66 158 2 8 8 29 13 45 8 28 7 74 -3 103 -10 28 -51 11 -100 -41z"/>
<path d="M42 729 c-49 -18 -19 -99 62 -168 15 -14 33 -30 40 -36 63 -64 310
-171 436 -190 14 -2 40 -7 58 -11 18 -4 32 -2 32 3 0 13 -94 98 -205 185 -33
26 -69 56 -80 65 -46 42 -207 143 -237 148 -59 11 -84 12 -106 4z"/>
<path d="M1858 735 c-2 -2 -19 -5 -38 -8 -57 -8 -102 -32 -211 -113 -57 -43
-109 -82 -115 -88 -6 -6 -29 -24 -50 -41 -21 -16 -54 -44 -74 -61 -19 -17 -50
-43 -67 -59 -18 -16 -33 -32 -33 -38 0 -19 185 25 311 74 195 77 384 252 335
312 -10 13 -51 29 -58 22z"/>
<path d="M950 300 c-8 -5 -25 -10 -37 -10 -39 0 -51 -51 -25 -97 11 -20 21
-23 76 -23 66 0 96 17 96 54 0 25 -19 56 -34 56 -8 0 -19 7 -26 15 -14 17 -29
19 -50 5z"/>
<path d="M262 220 c-143 -34 -130 -81 23 -80 92 0 259 22 323 41 37 12 42 28
10 30 -28 2 -50 5 -108 14 -91 14 -176 13 -248 -5z"/>
<path d="M1509 236 c-2 -2 -31 -7 -64 -11 -33 -3 -69 -8 -80 -10 -11 -1 -30
-3 -42 -4 -13 0 -23 -5 -23 -10 0 -10 52 -33 66 -30 8 2 25 -1 109 -18 60 -12
263 -15 283 -4 45 24 28 41 -71 71 -36 11 -170 23 -178 16z"/>
</g>
</svg>
